<?xml version="1.0" encoding="UTF-8" standalone="no"?>
<!DOCTYPE svg PUBLIC "-//W3C//DTD SVG 1.1//EN" "http://www.w3.org/Graphics/SVG/1.1/DTD/svg11.dtd">
<svg width="30px" height="30px" viewBox="0 0 487 508" version="1.1" xmlns="http://www.w3.org/2000/svg" xmlns:xlink="http://www.w3.org/1999/xlink" xml:space="preserve" xmlns:serif="http://www.serif.com/" style="fill-rule:evenodd;clip-rule:evenodd;stroke-linejoin:round;stroke-miterlimit:2;">
    <g transform="matrix(1,0,0,1,-264.881,-286.3)">
        <g id="rg-logo" transform="matrix(0.535972,0,0,0.535972,243.403,259.911)">
            <path d="M420.764,724.774C447.908,736.445 478.646,752.045 513.09,774.678C523.332,781.408 534.039,788.574 544.589,797.045C569.396,816.964 594.819,841.901 621.808,871.881C644.458,853.528 668.155,835.979 691.673,819.449C717.629,801.205 743.27,784.273 766.88,769.218L600,764.12C586.688,764.12 575.88,753.312 575.88,740C575.88,726.688 586.688,715.88 600,715.88L877,707.418C891.44,707.418 904.157,716.923 908.247,730.771C912.338,744.62 906.824,759.509 894.701,767.354C864.622,788.341 802.163,829.766 739.629,881.985C707.978,908.415 676.808,937.947 649.371,968.267C640.587,977.079 628.59,981.929 616.149,981.698C603.709,981.466 591.9,976.173 583.45,967.039C543.649,927.757 506.474,899.679 474.657,875.646C457.352,862.574 442.071,850.275 427.109,840.358C377.011,807.154 337.001,792.185 307.105,779.005C273.288,764.191 239.442,755.658 208.629,750.944C160.771,743.623 120.019,744.055 96.892,741.481C76.647,739.814 61.321,722.473 62.155,702.176C62.989,681.879 79.686,665.855 100,665.855L221.936,663.421C266.188,662.689 318.454,659.636 371.266,652.33C420.412,645.532 469.948,634.844 513.76,619.646C567.004,601.14 623.729,575.273 674.44,545.158C727.267,513.786 773.384,477.839 798.87,439.477C823.597,404.506 837.63,363.734 839.379,323.042C841.097,283.096 832.186,242.803 806.146,208.588C772.314,163.575 722.18,146.933 671.688,143.803C605.483,139.698 538.787,156.404 498.743,170.175C418.695,197.884 343.896,246.717 279.05,304.492C208.62,367.242 150.018,439.853 106.471,504.122C104.196,507.693 99.449,508.746 95.878,506.471C92.307,504.196 91.254,499.449 93.529,495.878C134.209,427.847 190.739,351.402 257.995,282.463C322.529,216.314 397.002,157.563 479.428,121.093C531.656,97.853 625.903,67.413 714.933,76.283C773.318,82.1 828.611,105.559 872.3,154.175C916.013,203.407 936.415,263.72 936.655,324.942C936.889,384.522 916.363,444.714 881.13,496.523C852.845,535.68 808.165,573.584 754.538,606.148C689.342,645.737 611.436,678.548 539.689,699.957C502.555,711.062 461.959,719.103 420.764,724.774Z" style="fill: white;"/>
        </g>
    </g>
</svg>
