<svg width="31" height="31" viewBox="0 0 31 31" fill="none" xmlns="http://www.w3.org/2000/svg">
<path d="M15.5 0.333252C7.2 0.333252 0.5 7.03325 0.5 15.3333C0.5 23.6333 7.2 30.3333 15.5 30.3333C23.8 30.3333 30.5 23.6333 30.5 15.3333C30.5 7.03325 23.8 0.333252 15.5 0.333252ZM7.2 5.83325C7.6 5.53325 8.1 5.33325 8.5 5.33325C8.9 5.33325 9.5 5.53325 9.8 5.83325C10.1 6.23325 10.3 6.63325 10.3 7.13325C10.3 7.63325 10.1 8.13325 9.7 8.43325C9.5 8.83325 9 9.03325 8.5 9.03325C8 9.03325 7.5 8.83325 7.2 8.53325C6.9 8.13325 6.7 7.63325 6.7 7.13325C6.7 6.63325 6.9 6.23325 7.2 5.83325ZM10.4 21.9333H6.7V10.4333H10.4V21.9333ZM24.3 21.9333H20.6V15.8333C20.6 12.1333 16.2 12.4333 16.2 15.8333V21.9333H12.6V10.4333H16.3V11.9333C17.8 9.13325 24.4 8.93325 24.4 14.6333V21.9333H24.3Z" fill="#B2B2B2"/>
</svg>
