<svg width="31" height="31" viewBox="0 0 31 31" fill="none" xmlns="http://www.w3.org/2000/svg">
<path d="M15.5 0.259216C7.2 0.259216 0.5 6.95922 0.5 15.2592C0.5 23.5592 7.2 30.2592 15.5 30.2592C23.8 30.2592 30.5 23.5592 30.5 15.2592C30.5 6.95922 23.8 0.259216 15.5 0.259216ZM24.5 20.8592C24.5 21.3592 24.1 21.7592 23.6 21.7592H7.5C6.9 21.7592 6.5 21.2592 6.5 20.7592V11.0592L15.5 15.7592L24.5 11.0592V20.8592ZM24.5 9.95922L15.5 14.6592L6.5 9.95922V9.75922C6.5 9.25922 6.9 8.75922 7.5 8.75922H23.5C24.1 8.75922 24.5 9.25922 24.5 9.75922V9.95922Z" fill="#B2B2B2"/>
</svg>
