<svg width="71" height="76" viewBox="0 0 71 76" fill="none" xmlns="http://www.w3.org/2000/svg">
<path d="M70.4363 6.46862C69.9265 3.60368 67.8555 1.28445 65.211 0.670532C65.0835 0.636426 64.9561 0.636426 64.7968 0.602319C64.7649 0.602319 64.733 0.534106 64.7012 0.5H6.26696C6.23509 0.534106 6.20323 0.602319 6.13951 0.602319C3.49499 1.07981 1.26468 3.33083 0.659308 6.19577C0.627447 6.29809 0.563723 6.43452 0.5 6.57094V69.2926C0.531862 69.3608 0.595585 69.395 0.595585 69.4632C1.23282 72.601 3.01707 74.545 5.91648 75.3295C6.01206 75.3636 6.07579 75.4318 6.13951 75.5H64.7968C64.8605 75.4659 64.8924 75.3977 64.9561 75.3636C67.8555 74.6473 69.6397 72.7715 70.3726 69.6678C70.4044 69.5655 70.3726 69.4291 70.4044 69.3267C70.4044 69.2926 70.4681 69.2585 70.5 69.2244V6.67326C70.5 6.60505 70.4363 6.57094 70.4363 6.46862ZM41.1236 42.0757H40.7731C38.1286 42.0757 35.4522 42.0757 32.8077 42.0757C32.6802 42.0757 32.5528 42.0757 32.4254 42.0757C32.4254 42.1098 32.3935 42.1098 32.3935 42.1439C32.3935 42.2804 32.3935 42.4168 32.3935 42.5532V68.8492H25.4158V42.1098H16.6538V36.1412H41.0917V42.0757H41.1236ZM64.6375 59.9134C64.5737 61.073 64.4144 62.1985 63.9684 63.2899C63.8409 63.631 63.7453 63.9379 63.586 64.279C63.0125 65.575 62.0567 66.4959 60.9415 67.2462C59.667 68.0989 58.2651 68.5764 56.7995 68.8834C55.1746 69.2244 53.5496 69.3267 51.8928 69.2585C51.0963 69.2244 50.2997 69.2244 49.5032 69.1221C47.6234 68.8834 45.7754 68.44 44.0548 67.5532C43.9593 67.5191 43.8318 67.3486 43.8318 67.2462C43.8318 65.0293 43.8318 62.8124 43.8318 60.5955C43.8318 60.5614 43.8318 60.5273 43.8318 60.4591C44.3416 60.8342 44.8514 61.2094 45.3612 61.5164C46.6038 62.3008 47.9738 62.8465 49.3757 63.1876C50.5865 63.4945 51.7972 63.5287 53.008 63.4604C53.932 63.4263 54.8559 63.1876 55.6843 62.7442C56.4172 62.3349 57.0225 61.7892 57.1818 60.8684C57.3411 60.0498 57.2774 59.2312 56.8314 58.515C56.1941 57.4918 55.302 56.8438 54.3143 56.2981C53.1991 55.7183 52.084 55.2067 50.937 54.661C49.2483 53.8424 47.5915 52.9557 46.2214 51.5914C45.1063 50.4659 44.2779 49.1357 43.8955 47.5327C43.6725 46.5778 43.6088 45.6228 43.6406 44.6678C43.6725 42.3145 44.469 40.3022 46.0303 38.631C47.3047 37.2667 48.866 36.4482 50.5865 35.9707C51.7654 35.6637 52.9442 35.425 54.155 35.3909C55.0152 35.3909 55.8755 35.2885 56.7039 35.3226C58.0102 35.3568 59.2847 35.425 60.5592 35.766C61.3876 36.0048 62.2478 36.2435 63.0762 36.4482C63.2355 36.4823 63.2993 36.5846 63.2993 36.7892C63.2993 38.9038 63.2993 41.0525 63.2993 43.1671C63.2993 43.2353 63.2993 43.3035 63.2674 43.4059C63.0125 43.2353 62.7895 43.0989 62.5665 42.9625C61.5469 42.3486 60.4636 41.9393 59.3484 41.6323C58.1058 41.3254 56.8632 41.1207 55.5888 41.1548C54.7285 41.1889 53.8364 41.3254 53.0398 41.6323C52.0521 42.0075 51.2556 42.6214 50.9051 43.7469C50.6183 44.6337 50.8414 45.384 51.3512 46.1003C51.9884 46.987 52.8487 47.601 53.7726 48.0784C55.0152 48.7265 56.2897 49.2722 57.5005 49.8861C58.9024 50.6023 60.3043 51.3186 61.4832 52.3759C62.5027 53.2967 63.4267 54.3199 63.9365 55.6842C64.2233 56.5027 64.4782 57.3554 64.4782 58.2763C64.6056 58.822 64.6693 59.3677 64.6375 59.9134Z" fill="white"/>
</svg>
