<svg width="71" height="76" viewBox="0 0 71 76" fill="none" xmlns="http://www.w3.org/2000/svg">
<path d="M68.946 34.6966L38.3383 1.90701C36.5871 0.030995 33.6938 0.030995 31.9427 1.90701L25.6232 8.677L33.6938 17.323C35.5973 16.6705 37.7292 17.0783 39.1758 18.7096C40.6986 20.3409 41.0793 22.6248 40.4702 24.6639L48.2363 32.9837C50.1398 32.3312 52.2716 32.739 53.7944 34.3703C55.9263 36.5726 55.9263 40.2431 53.7944 42.5269C51.6625 44.8108 48.3124 44.8108 46.1806 42.5269C44.5817 40.814 44.201 38.367 45.0385 36.2463L37.8053 28.4976V48.8891C38.3383 49.1338 38.7951 49.5416 39.252 49.9494C41.3838 52.1517 41.3838 55.8222 39.252 58.106C37.1201 60.3083 33.77 60.3083 31.6381 58.106C29.5062 55.8222 29.5062 52.2333 31.6381 49.9494C32.1711 49.3785 32.7802 48.9706 33.3893 48.7259V28.0897C32.7802 27.845 32.1711 27.3556 31.6381 26.8662C30.0392 25.1533 29.6585 22.7064 30.496 20.5856L22.5015 12.1028L1.56339 34.5334C-0.187796 36.4095 -0.187796 39.509 1.56339 41.385L32.0949 74.093C33.8461 75.969 36.7394 75.969 38.4906 74.093L68.8698 41.5481C70.6972 39.5905 70.6972 36.5726 68.946 34.6966Z" fill="white"/>
</svg>
