<svg width="70" height="76" viewBox="0 0 70 76" fill="none" xmlns="http://www.w3.org/2000/svg">
<path d="M0 0.5C23.3491 0.5 46.6509 0.5 70 0.5C70 25.5169 70 50.5338 70 75.5C46.6982 75.5 23.3491 75.5 0 75.5C0 50.4325 0 25.4662 0 0.5ZM62.6266 40.2029C61.2086 37.4683 59.2708 35.5945 56.4821 34.9362C54.497 34.4298 52.5118 34.4298 50.5267 34.8856C44.0986 36.3035 41.3572 44.6087 45.5165 50.1286C46.9818 52.053 48.9196 53.2178 50.9521 54.2306C52.7481 55.1421 54.5915 56.003 56.3876 56.9652C57.6165 57.6236 58.1364 58.839 57.9946 60.3076C57.8528 61.7762 56.9075 62.5864 55.7259 63.0422C53.079 64.055 50.0068 63.1435 48.2107 60.7633C47.8325 60.2569 47.4544 59.6999 47.0763 59.1428C45.2802 60.2569 43.5314 61.3204 41.7826 62.4345C42.8697 64.7134 44.3822 66.5365 46.4618 67.7519C50.0068 69.8282 53.7407 70.132 57.5692 69.1192C60.0743 68.4608 62.2012 67.0935 63.5246 64.6121C65.9824 59.9024 64.5645 54.028 60.2161 51.1415C58.2782 49.8754 56.104 49.0145 54.0716 47.9004C53.079 47.3433 52.0392 46.8369 51.1884 46.128C49.6759 44.8113 49.9595 42.1779 51.661 41.1651C53.3153 40.1523 55.6313 40.76 56.9075 42.5324C57.1911 42.8869 57.3802 43.292 57.6637 43.6972C59.2708 42.5324 60.9251 41.3677 62.6266 40.2029ZM18.4335 63.1941C19.3788 65.3717 20.7495 67.0935 22.6874 68.2076C25.1924 69.6762 27.9338 69.9294 30.7225 69.4737C33.2276 69.0685 35.3072 67.8531 36.6779 65.4223C37.8123 63.3967 38.1431 61.1685 38.1431 58.7883C38.1431 51.0908 38.1431 43.3933 38.1431 35.6958C38.1431 35.4932 38.1431 35.24 38.1431 34.9868C35.9217 34.9868 33.7947 34.9868 31.5733 34.9868C31.5733 35.2907 31.5733 35.5439 31.5733 35.8477C31.5733 43.444 31.5733 50.9895 31.5733 58.5858C31.5733 59.2947 31.526 60.0544 31.4315 60.7633C31.2424 61.9281 30.6752 62.789 29.5881 63.1435C27.5557 63.8018 25.9014 63.1435 24.7198 61.2698C24.4362 60.7633 24.1526 60.2569 23.8217 59.7505C21.9784 60.9153 20.2296 62.0294 18.4335 63.1941Z" fill="white"/>
</svg>
