<svg width="71" height="76" viewBox="0 0 71 76" fill="none" xmlns="http://www.w3.org/2000/svg">
<path d="M26.7676 69.1146C21.7749 67.6931 17.384 65.0758 13.5504 61.4206C12.3468 61.8493 11.1209 62.278 9.8727 62.6841C9.29319 62.8646 8.71368 62.7969 8.11189 62.5713C7.04202 62.1652 6.39565 61.3755 5.92758 60.4052C5.28121 59.1191 4.45652 57.9458 3.81015 56.6597C3.23064 55.4639 2.38366 54.426 1.89331 53.185C1.64813 52.5758 1.00176 52.1697 1.00176 51.4025C0.42225 50.4549 0.97947 49.62 1.3138 48.7852C1.40296 48.5596 1.5144 48.2662 1.715 48.176C2.5174 47.815 2.9186 47.0027 3.58726 46.5063C3.8993 46.2807 4.23364 46.0325 4.59026 45.7617C4.07761 43.167 3.63184 40.5722 3.63184 37.9097C3.63184 35.2699 4.0999 32.7202 4.59026 30.1931C3.72099 29.3809 2.9186 28.5912 2.07162 27.8466C1.20236 27.0794 0.689716 26.1318 0.80116 25.139C0.868026 24.5975 1.02405 24.0108 1.29151 23.5596C2.1162 22.2283 2.87402 20.8294 3.67642 19.4756C4.32279 18.3926 4.88001 17.2644 5.59325 16.204C5.97216 15.6625 6.19505 15.0307 6.57396 14.4666C7.30949 13.4061 8.78055 12.8872 9.98415 13.2482C11.054 13.5641 12.057 14.0379 13.1492 14.241C13.2606 14.2635 13.3498 14.4215 13.4612 14.5343C17.3172 10.9016 21.7081 8.30686 26.7453 6.79513C26.9459 6.18592 26.9905 5.53159 27.2357 4.89982C27.414 4.42599 27.3694 3.83935 27.4586 3.3204C27.7037 1.96661 28.5284 1.1769 29.7097 0.770758C30.1332 0.635379 30.5567 0.5 31.0694 0.5C34.1898 0.545126 37.3102 0.545126 40.4307 0.5C41.3222 0.5 42.08 0.861011 42.7933 1.26715C43.4396 1.6056 43.7963 2.32762 43.9746 3.00451C44.2866 4.24549 44.4649 5.50903 44.7101 6.81769C49.7251 8.26173 54.116 10.8565 57.9497 14.5117C59.1532 14.083 60.3791 13.6543 61.6273 13.2482C62.2068 13.0677 62.7863 13.1354 63.3881 13.361C64.458 13.7671 65.1044 14.5569 65.5724 15.5271C66.2188 16.8132 67.0435 17.9865 67.6899 19.2726C68.2694 20.4684 69.1163 21.5063 69.6067 22.7473C69.8519 23.3565 70.4982 23.7626 70.4982 24.5298C71.0778 25.4774 70.5205 26.3123 70.1862 27.1471C70.097 27.3727 69.9856 27.6661 69.785 27.7563C68.9826 28.1173 68.5814 28.9296 67.9127 29.426C67.6007 29.6516 67.2664 29.8998 66.9097 30.1706C67.4224 32.7653 67.8682 35.3601 67.8682 38.0226C67.8682 40.6625 67.467 43.2121 66.9097 45.7392C67.779 46.5514 68.5814 47.3412 69.4284 48.0857C70.2976 48.8529 70.8103 49.8005 70.6988 50.7933C70.632 51.3348 70.4982 51.9215 70.2085 52.3727C69.4061 53.6814 68.6483 55.0352 67.8682 56.3664C66.8875 58.0135 66.0851 59.796 64.9483 61.3529C64.7477 62.2103 63.9453 62.278 63.3658 62.5939C62.7417 62.9323 62.1177 62.8421 61.4267 62.639C60.4014 62.3457 59.4207 61.8267 58.3508 61.6913C58.2394 61.6688 58.1503 61.5108 58.0388 61.398C54.1828 65.0758 49.8142 67.6931 44.7101 69.1597C44.4649 70.3782 44.242 71.6417 43.9746 72.8827C43.7071 74.1011 42.9047 74.8682 41.768 75.2292C41.3445 75.3646 40.8987 75.5 40.4084 75.5C37.2879 75.4549 34.1675 75.4549 31.0471 75.5C30.1555 75.5 29.3977 75.139 28.6845 74.7329C28.0381 74.3944 27.6592 73.6724 27.5254 72.9955C27.2803 71.6643 27.0351 70.4233 26.7676 69.1146ZM28.2164 49.2365C28.6622 48.9883 29.1748 48.8303 29.1971 48.2888C29.2417 47.4765 29.3531 46.6417 29.1748 45.8745C28.8628 44.5659 28.3055 43.3023 27.9712 41.9937C27.7483 41.1588 27.258 40.3691 27.2803 39.4666C26.567 37.6841 26.1212 35.8114 25.5194 34.0063C25.0291 32.5171 24.6725 30.9829 24.1375 29.5162C23.8478 28.704 23.7809 27.8014 23.246 27.0794C23.2014 27.0117 23.1791 26.9666 23.1791 26.9666C22.5773 26.5605 21.9532 26.6958 21.4183 26.6958C21.1063 26.9892 20.8388 27.2374 20.5936 27.463C20.5713 28.185 20.0587 28.7491 20.1478 29.4486C19.3677 31.2085 19.0334 33.1038 18.387 34.9088C18.0527 35.8339 17.8521 36.7816 17.5846 37.7292C17.3395 38.6769 16.8045 39.5343 16.8045 40.5496C15.9575 42.4675 15.5341 44.5208 14.91 46.5289C14.7539 47.0253 14.6648 47.4991 14.9768 47.9729C15.066 48.1083 15.0214 48.3114 15.0214 48.2888C15.378 48.6724 15.6455 48.9431 15.8684 49.2139C16.2919 49.2139 16.7377 49.2139 17.2057 49.2139C17.5178 48.8078 17.8298 48.4242 18.1196 48.0406C18.0527 46.7545 18.3202 45.8971 18.8997 44.5208C21.084 44.5208 23.2683 44.5208 25.4526 44.5208C25.6309 45.2428 25.72 45.9422 25.9652 46.5966C26.0767 46.8673 26.1881 47.1381 26.1435 47.4088C26.0767 48.2437 26.3441 48.898 27.2803 49.2139C27.5031 49.2365 27.8375 49.2365 28.2164 49.2365ZM33.432 49.2365C34.0338 49.1913 34.7247 49.3718 35.2151 48.8755C35.3934 48.6498 35.5494 48.4242 35.7723 48.1083C35.7723 45.852 35.7723 43.4829 35.7723 41.1137C37.3994 41.1137 39.0042 41.046 40.5867 41.1363C41.5451 41.1814 42.3252 40.8881 43.083 40.4143C43.4396 40.1886 43.7517 39.8502 44.0637 39.5343C44.8884 38.722 45.2896 37.7292 45.3119 36.556C45.3119 34.7058 45.3119 32.8782 45.3119 31.028C45.3119 30.7572 45.245 30.4639 45.1782 30.1931C44.933 29.2229 44.4203 28.5009 43.7294 27.8691C42.927 27.1245 41.9909 26.6733 40.8764 26.6733C38.3801 26.6733 35.906 26.6733 33.3874 26.6733C33.1422 26.944 32.897 27.2148 32.6073 27.4856C32.6073 34.435 32.6073 41.4296 32.6073 48.4468C32.897 48.6949 33.1645 48.9657 33.432 49.2365ZM49.4799 49.2365C51.0178 49.2365 52.578 49.2365 54.116 49.2365C54.3834 48.9657 54.6509 48.6949 54.9184 48.4468C54.9184 48.0181 54.9184 47.6119 54.9184 47.1832C54.9184 47.1381 54.9184 47.1155 54.9184 47.093C54.584 46.4612 54.0714 46.0776 53.4027 46.0099C53.4027 40.6173 53.4027 35.2473 53.4027 29.9901C53.8931 29.7419 54.3166 29.5162 54.8069 29.2455C54.8738 28.6588 54.9184 28.0496 54.963 27.6209C54.6063 27.2148 54.3612 26.9215 54.1606 26.6958C52.5558 26.6958 50.9955 26.6958 49.6136 26.6958C49.2347 27.0343 48.9673 27.2825 48.6329 27.5984C48.6998 28.1399 48.789 28.7491 48.8558 29.2681C49.3907 29.5388 49.8142 29.7644 50.1931 29.9675C50.1931 35.3375 50.1931 40.7076 50.1931 46.0325C49.9703 46.0776 49.7251 46.0325 49.6359 46.1453C49.3239 46.4612 48.789 46.5514 48.6775 47.0704C48.6775 47.5217 48.6775 47.9729 48.6775 48.4242C48.945 48.6949 49.2124 48.9657 49.4799 49.2365Z" fill="white"/>
<path d="M24.2713 41.0684C22.9563 41.1135 21.5743 41.1361 20.1924 41.1812C20.1479 41.1812 20.081 41.2714 19.9473 41.3842C19.9696 39.9853 20.7497 38.8572 20.8388 37.5711C21.5075 36.4429 21.5743 35.1117 22.0201 33.8481C22.1539 33.9835 22.3545 34.1189 22.3545 34.2317C22.3767 35.2019 22.934 36.0368 23.1123 36.9619C23.246 37.5936 23.6026 38.2028 23.6918 38.8346C23.7809 39.6469 24.3159 40.2561 24.2713 41.0684Z" fill="white"/>
<path d="M42.2131 36.6917C42.0571 36.9399 41.9234 37.1881 41.7451 37.4138C41.433 37.7748 41.0318 37.9778 40.5192 37.9553C38.959 37.9327 37.3987 37.9553 35.7939 37.9553C35.7939 35.2703 35.7939 32.5852 35.7939 29.8325C37.421 29.8325 39.0927 29.81 40.7421 29.8325C41.5222 29.8551 42.1908 30.6674 42.2131 31.5248C42.2131 32.9463 42.2131 34.3677 42.2131 35.7892C42.2131 36.1051 42.2131 36.3984 42.2131 36.6917Z" fill="white"/>
</svg>
