<svg width="80" height="76" viewBox="0 0 80 76" fill="none" xmlns="http://www.w3.org/2000/svg">
<path fill-rule="evenodd" clip-rule="evenodd" d="M78.3013 20.2049L71.2114 30.1354L64.1215 20.2049H67.9871C67.6924 12.8264 61.6079 6.92361 54.1713 6.92361C47.8961 6.92361 42.5743 11.1424 40.8929 16.8889C38.8474 16.2292 36.7325 15.8125 34.583 15.6215C34.8257 14.7014 35.1377 13.7812 35.5191 12.8958C36.5418 10.4826 37.998 8.3125 39.8528 6.45486C41.7076 4.59722 43.8744 3.12153 46.284 2.11458C48.7802 1.03819 51.4324 0.5 54.1713 0.5C56.9102 0.5 59.5624 1.03819 62.0586 2.09722C64.4682 3.12153 66.635 4.57986 68.4898 6.4375C70.3447 8.29514 71.8008 10.4653 72.8235 12.8785C73.8116 15.2049 74.349 17.6701 74.401 20.2049H78.3013Z" fill="white"/>
<path fill-rule="evenodd" clip-rule="evenodd" d="M68.3854 75.4999V71.229H43.9434C44.1167 71.1422 44.2901 71.0728 44.4634 70.986C47.1156 69.7186 49.5598 68.0693 51.744 66.0554C52.0387 65.7776 52.3161 65.5172 52.5761 65.2568C52.8708 64.9617 53.1828 64.6492 53.4775 64.3193C53.8242 63.9374 54.1709 63.5381 54.4829 63.1387H68.3854V58.8679L79.9997 67.1839L68.3854 75.4999Z" fill="white"/>
<path fill-rule="evenodd" clip-rule="evenodd" d="M59.3716 44.6493C59.3716 48.3472 58.6435 51.9409 57.2221 55.3264C56.0087 58.2083 54.3099 60.8472 52.195 63.1562C51.9177 63.4514 51.6403 63.7465 51.3629 64.0416C51.1029 64.3021 50.8429 64.5451 50.5829 64.8055C48.5374 66.6979 46.2492 68.243 43.753 69.4409C43.4063 69.6146 43.0422 69.7708 42.6782 69.9271C42.6609 69.9271 42.6609 69.9444 42.6435 69.9444C40.5634 70.8298 38.3272 71.2639 36.0563 71.2639H0V63.1909H33.4735C43.597 63.1909 51.9003 55.0833 52.039 44.9444C52.039 44.8576 52.039 44.7708 52.039 44.684C52.039 33.6076 43.0596 24.6146 32 24.6146C20.9404 24.5798 11.961 33.5555 11.961 44.6493H16.6067L8.30336 56.2812L0 44.6493H4.64572C4.64572 40.9514 5.37378 37.3576 6.79523 33.9722C8.18201 30.7083 10.1408 27.7743 12.6544 25.2569C15.1679 22.7396 18.0975 20.7604 21.3564 19.3889C24.7367 17.9653 28.325 17.2361 32.0173 17.2361C32.7627 17.2361 33.4908 17.2708 34.2188 17.3229C36.3684 17.4965 38.4659 17.9132 40.5114 18.5902C41.2394 18.8333 41.9502 19.0937 42.6609 19.4062C45.9198 20.7951 48.8494 22.7569 51.3629 25.2743C53.8765 27.7916 55.8526 30.7257 57.2221 33.9896C58.6435 37.3576 59.3716 40.9514 59.3716 44.6493Z" fill="white"/>
</svg>
